<?xml version="1.0" standalone="no"?>
<!DOCTYPE svg PUBLIC "-//W3C//DTD SVG 20010904//EN"
 "http://www.w3.org/TR/2001/REC-SVG-20010904/DTD/svg10.dtd">
<svg version="1.0" xmlns="http://www.w3.org/2000/svg"
 width="512.000000pt" height="512.000000pt" viewBox="0 0 512.000000 512.000000"
 preserveAspectRatio="xMidYMid meet">

<g transform="translate(0.000000,512.000000) scale(0.100000,-0.100000)"
fill="#000000" stroke="none">
<path d="M2410 4135 l0 -375 150 0 150 0 0 375 0 375 -150 0 -150 0 0 -375z"/>
<path d="M1353 4207 c-68 -34 -123 -65 -123 -69 0 -18 291 -588 300 -588 9 0
248 116 258 125 7 6 -294 595 -303 594 -5 0 -65 -28 -132 -62z"/>
<path d="M3475 3980 c-80 -159 -145 -293 -145 -298 0 -9 257 -138 264 -132 8
10 297 592 294 595 -10 9 -249 125 -258 125 -5 0 -75 -130 -155 -290z"/>
<path d="M308 3609 l-118 -90 225 -299 225 -300 120 90 120 91 -225 299 c-124
165 -226 300 -228 299 -1 0 -55 -41 -119 -90z"/>
<path d="M4465 3400 l-225 -299 120 -91 120 -90 225 300 225 299 -120 91 -120
90 -225 -300z"/>
<path d="M2340 3300 c-553 -58 -1110 -292 -1643 -691 -232 -174 -458 -379
-631 -572 l-68 -77 65 -72 c397 -444 952 -846 1450 -1052 790 -327 1520 -296
2303 97 447 224 898 571 1241 954 l65 73 -68 77 c-92 103 -288 293 -399 388
-558 475 -1169 774 -1760 861 -123 18 -440 26 -555 14z m460 -318 c462 -121
780 -500 807 -962 17 -304 -97 -595 -317 -810 -375 -365 -947 -399 -1365 -82
-436 330 -542 941 -245 1400 160 248 434 426 725 472 93 14 308 4 395 -18z
m-1396 -327 c-74 -117 -148 -312 -175 -465 -18 -97 -18 -363 0 -460 27 -153
101 -348 175 -464 20 -31 36 -59 36 -61 0 -7 -101 45 -190 98 -277 163 -537
360 -770 583 -87 84 -94 62 65 208 189 172 389 325 606 463 103 66 281 164
287 159 2 -2 -13 -30 -34 -61z m2514 -66 c259 -156 586 -411 757 -589 l40 -42
-88 -84 c-172 -164 -403 -347 -602 -476 -105 -68 -337 -200 -342 -194 -2 1 18
38 45 82 156 260 217 620 158 924 -30 154 -97 331 -170 444 -20 31 -36 59 -36
61 0 9 116 -53 238 -126z"/>
<path d="M2455 2396 c-84 -21 -147 -57 -211 -121 -258 -257 -117 -695 245
-757 186 -32 376 62 464 230 95 181 65 384 -78 528 -112 113 -269 158 -420
120z m175 -306 c45 -23 80 -80 80 -131 0 -74 -76 -149 -151 -149 -46 0 -108
39 -130 82 -37 72 -14 151 57 194 48 29 92 30 144 4z"/>
</g>
</svg>
