<?xml version="1.0" standalone="no"?><!DOCTYPE svg PUBLIC "-//W3C//DTD SVG 20010904//EN"
    "http://www.w3.org/TR/2001/REC-SVG-20010904/DTD/svg10.dtd">
<svg height="512.000000pt" preserveAspectRatio="xMidYMid meet" version="1.0"
    viewBox="0 0 512.000000 512.000000" width="512.000000pt" xmlns="http://www.w3.org/2000/svg">

    <g fill="#000000" stroke="black" stroke-width="20"
        transform="translate(0.000000,512.000000) scale(0.100000,-0.100000)">
        <path d="M3605 4555 c-90 -20 -127 -39 -418 -214 -148 -88 -272 -161 -276
-161 -4 0 -23 -12 -42 -26 -19 -14 -155 -98 -304 -187 -350 -211 -411 -269
-476 -457 -31 -91 -32 -238 -1 -335 96 -308 417 -480 723 -386 70 22 114 48
786 451 410 246 466 283 534 350 113 112 169 244 169 400 -1 369 -339 644
-695 565z m201 -136 c135 -25 256 -120 318 -249 29 -61 31 -72 31 -181 0 -113
-1 -117 -37 -190 -24 -48 -55 -92 -85 -120 -43 -40 -540 -349 -561 -349 -9 0
-456 739 -451 745 10 9 472 286 508 304 90 47 175 59 277 40z m-676 -799 c117
-195 214 -358 216 -362 7 -12 -500 -312 -566 -335 -206 -71 -437 24 -532 220
-83 167 -50 364 82 496 75 75 558 367 576 349 6 -7 107 -173 224 -368z" stroke="black"
            stroke-width="20" />
        <path d="M4080 2416 c-25 -7 -169 -65 -321 -128 l-275 -115 -515 58 c-1295
147 -1203 140 -1369 114 -119 -18 -168 -33 -501 -156 -149 -54 -274 -99 -278
-99 -5 0 -11 21 -15 48 -12 93 -82 183 -176 226 -40 18 -68 21 -240 24 -188 4
-196 3 -223 -18 l-27 -21 0 -864 0 -864 27 -21 c26 -21 36 -21 223 -18 190 3
196 4 252 31 109 54 159 136 167 277 l6 95 59 23 c122 49 283 65 407 42 30 -6
378 -116 773 -246 396 -130 745 -240 776 -246 73 -12 155 2 235 42 33 16 175
113 315 215 317 231 408 297 1000 725 261 189 490 357 508 374 61 56 85 110
90 197 4 74 2 84 -27 144 -38 76 -97 127 -174 150 -98 29 -177 14 -283 -55
l-64 -42 -41 37 c-23 20 -62 46 -88 58 -57 25 -161 31 -221 13z m178 -152 c29
-14 52 -29 52 -32 -1 -6 -578 -391 -599 -399 -3 -2 -6 28 -6 65 0 57 -5 79
-31 128 l-30 60 210 87 c324 135 319 133 404 91z m521 -13 c60 -43 81 -133 47
-199 -11 -21 -277 -219 -901 -672 -487 -352 -901 -650 -921 -662 -21 -12 -59
-22 -97 -25 -60 -5 -90 4 -797 236 -404 132 -760 246 -790 253 -89 20 -280 15
-383 -10 -48 -12 -97 -27 -108 -32 -19 -11 -19 -4 -19 393 l0 403 322 118
c435 159 437 159 633 159 137 0 272 -13 931 -90 551 -65 779 -95 802 -107 36
-18 72 -81 72 -123 0 -41 -32 -95 -71 -118 -31 -18 -62 -20 -419 -27 -942 -19
-927 -18 -949 -40 -30 -27 -27 -72 6 -98 27 -21 33 -22 230 -15 l202 8 247
-154 c136 -85 258 -158 271 -162 17 -7 34 -2 66 16 23 14 355 231 737 482 382
252 711 466 730 477 45 25 115 20 159 -11z m-4182 -27 c15 -11 38 -36 51 -54
l22 -33 0 -652 0 -652 -22 -33 c-47 -69 -64 -75 -224 -78 l-144 -3 0 766 0
766 144 -3 c128 -3 148 -5 173 -24z m2773 -609 c0 -6 -257 -175 -266 -175 -6
0 -146 85 -229 139 l-40 26 200 5 c110 3 230 7 268 8 37 1 67 0 67 -3z" stroke="black"
            stroke-width="10" />
    </g>
</svg>
